<?xml version="1.0" standalone="no"?>
<svg viewBox="0 0 200 200" xmlns="http://www.w3.org/2000/svg">
  <path fill="#FFFFFF" d="M39.1,-69.2C50.4,-61.2,59.1,-50.2,67.7,-38.1C76.3,-26.1,84.8,-13,86.7,1.1C88.6,15.2,83.9,30.5,75.5,42.8C67,55.1,54.8,64.4,41.6,70.1C28.4,75.8,14.2,77.8,-0.9,79.3C-16,80.9,-31.9,81.9,-45.9,76.7C-59.8,71.4,-71.7,59.8,-79.6,46C-87.4,32.2,-91.3,16.1,-90,0.7C-88.7,-14.6,-82.3,-29.2,-74.1,-42.5C-65.9,-55.7,-55.9,-67.7,-43.3,-75C-30.6,-82.2,-15.3,-84.8,-0.7,-83.6C13.9,-82.3,27.8,-77.3,39.1,-69.2Z" transform="translate(100 100)" />
</svg>
