<svg xmlns="http://www.w3.org/2000/svg" xmlns:xlink="http://www.w3.org/1999/xlink" fill-rule="nonzero" viewBox="47.36 47.36 161.28 161.28">
	<g transform="translate(68.5,68.5) scale(0.46484,0.46484)">
		<g fill="#ffffff" fill-rule="nonzero" stroke="none" stroke-width="1" stroke-linecap="butt" stroke-linejoin="miter" stroke-miterlimit="10" stroke-dasharray="" stroke-dashoffset="0" font-family="none" font-weight="none" font-size="none" text-anchor="none" style="mix-blend-mode: normal">
			<path d="M41.26118,301.47765c-47.90453,0 -86.73882,-38.83429 -86.73882,-86.73882v-173.47765c0,-47.90453 38.83429,-86.73882 86.73882,-86.73882h173.47765c47.90453,0 86.73882,38.83429 86.73882,86.73882v173.47765c0,47.90453 -38.83429,86.73882 -86.73882,86.73882z" id="shape"/>
		</g>
		<g fill="none" fill-rule="nonzero" stroke="none" stroke-width="1" stroke-linecap="butt" stroke-linejoin="miter" stroke-miterlimit="10" stroke-dasharray="" stroke-dashoffset="0" font-family="none" font-weight="none" font-size="none" text-anchor="none" style="mix-blend-mode: normal">
			<g transform="scale(0.5,0.5)">
				<g>
					<g>
						<path d="M429.9,230.33v213.42c0.00217,9.28574 -6.38934,17.35072 -15.43,19.47l-96.47,22.65v-248.52l6.47,-6.47l80.62,-19.96c5.97029,-1.47927 12.28918,-0.12914 17.1336,3.66087c4.84442,3.79001 7.67549,9.59831 7.6764,15.74913z" fill="#00efd1"/>
						<path d="M336.39,59.23c21.18054,21.09907 33.07224,49.77376 33.04,79.67c-0.01504,30.25827 -12.09768,59.26093 -33.57,80.58l-11.39,11.4l-6.47,6.47l-62,62l-55.69,-55.7l-24.17,-24.17c-7.67874,-7.80503 -14.22575,-16.6477 -19.45,-26.27c-0.04,-0.07 -0.07,-0.14 -0.11,-0.21c-22.98,-43.05 -16.64,-97.58 19.56,-133.77c44.29423,-44.1493 115.95577,-44.1493 160.25,0zM314.7,134.94c0,-32.41911 -26.28089,-58.7 -58.7,-58.7c-32.41911,0 -58.7,26.28089 -58.7,58.7c0,32.41911 26.28089,58.7 58.7,58.7c32.41911,0 58.7,-26.28089 58.7,-58.7z" fill="#00acea"/>
						<path d="M318,237.35v248.52l-117.69,-52.54v-189.68l55.69,55.7z" fill="#fedb41"/>
						<path d="M200.31,243.65v189.68l-91.88,30.63c-6.09903,2.03495 -12.80449,1.01365 -18.02113,-2.74479c-5.21664,-3.75844 -8.30828,-9.79566 -8.30887,-16.22521v-212.67c-0.00025,-8.60927 5.51109,-16.25183 13.68,-18.97l60.39,-20.14l0.41,-0.21c0.04,0.07 0.07,0.14 0.11,0.21c5.22425,9.6223 11.77126,18.46497 19.45,26.27z" fill="#00efd1"/>
					</g>
					<g fill="#083863">
						<path d="M428.431,206.7c-7.26295,-5.70835 -16.75878,-7.73423 -25.719,-5.487l-48.093,11.9c30.94603,-41.1667 32.99912,-97.24497 5.14623,-140.56436c-27.8529,-43.3194 -79.72561,-64.72521 -130.02283,-53.65526c-50.29722,11.06995 -88.3896,52.27623 -95.4814,103.28662c-2.96392,22.02377 -0.02507,44.43961 8.516,64.955l-50.2,16.727c-12.27462,4.06098 -20.56679,15.52905 -20.577,28.458v212.67c0.06123,16.54059 13.44053,29.94176 29.981,30.03c3.26375,-0.00492 6.50535,-0.53607 9.6,-1.573l88.2,-29.4l114.139,50.953c1.99335,0.9058 4.23451,1.11056 6.359,0.581l0.006,0.023l96.515,-22.648c13.59694,-3.13543 23.22202,-15.25225 23.2,-29.206v-213.42c0.00772,-9.24245 -4.26409,-17.96774 -11.569,-23.63zM154.074,124.905c7.47679,-53.64496 55.16361,-92.37511 109.20167,-88.6911c54.03806,3.68401 96.0273,48.52776 96.15433,102.6911c0.01315,27.61323 -11.0214,54.08407 -30.644,73.512l-72.786,72.791l-72.794,-72.8c-6.99389,-7.10829 -12.95478,-15.16363 -17.708,-23.93c-0.042,-0.08 -0.084,-0.16 -0.127,-0.239c-10.28728,-19.41355 -14.23775,-41.56094 -11.297,-63.334zM105.111,454.474c-3.04337,1.01592 -6.38981,0.50322 -8.98943,-1.37725c-2.59962,-1.88047 -4.13393,-4.89831 -4.12157,-8.10675v-212.67c0.01826,-4.31529 2.79491,-8.13509 6.894,-9.484l53.206,-17.736c4.77106,7.76214 10.40707,14.95813 16.8,21.45l21.1,21.25v178.323zM210,426.843v-159.043l38.773,38.623c1.90552,1.87796 4.47361,2.93049 7.149,2.93h0.039c2.65801,-0.00011 5.20772,-1.05329 7.091,-2.929l44.948,-44.937v208.968zM420,443.75c-0.00571,4.65757 -3.22614,8.6945 -7.766,9.735l-84.234,19.765v-231.766l1.563,-1.563l77.936,-19.3c2.99602,-0.74097 6.16638,-0.06872 8.60387,1.82437c2.43749,1.8931 3.87351,4.79843 3.89713,7.88463z"/>
						<path d="M256,203.64c37.94196,0 68.7,-30.75804 68.7,-68.7c0,-37.94196 -30.75804,-68.7 -68.7,-68.7c-37.94196,0 -68.7,30.75804 -68.7,68.7c0.04298,37.92414 30.77586,68.65702 68.7,68.7zM256,86.24c26.89627,0 48.7,21.80373 48.7,48.7c0,26.89627 -21.80373,48.7 -48.7,48.7c-26.89627,0 -48.7,-21.80373 -48.7,-48.7c0.03086,-26.88347 21.81653,-48.66914 48.7,-48.7z"/>
					</g>
				</g>
			</g>
		</g>
	</g>
</svg>