<svg xmlns:inkscape="http://www.inkscape.org/namespaces/inkscape" xmlns:sodipodi="http://sodipodi.sourceforge.net/DTD/sodipodi-0.dtd" xmlns="http://www.w3.org/2000/svg" xmlns:svg="http://www.w3.org/2000/svg" version="1.1" id="svg2" sodipodi:docname="java-seeklogo.com.eps" viewBox="15.45 19.81 69.55 37.45">
  <defs id="defs6"/>
  <sodipodi:namedview id="namedview4" pagecolor="#ffffff" bordercolor="#000000" borderopacity="0.25" inkscape:showpageshadow="2" inkscape:pageopacity="0.0" inkscape:pagecheckerboard="0" inkscape:deskcolor="#d1d1d1"/>
  <g id="g8" inkscape:groupmode="layer" inkscape:label="ink_ext_XXXXXX" transform="matrix(1.3333333,0,0,-1.3333333,0,77.333333)">
    <g id="g10" transform="scale(0.1)">
      <path d="m 456.16,224.406 c -0.074,-1.941 -4.644,-4.535 -6.14,-5.484 -6.887,-4.356 -16.782,-7.246 -23.239,-0.789 -6.246,6.242 -4.488,17.902 2.25,22.031 3.391,2.055 7.782,3.012 12.391,3.402 3.683,0.309 11.215,0.973 14.664,0.579 z m -46.574,60.203 2.695,-10.625 c 4.543,1.106 7.274,2.707 14.117,4.059 5.329,1.027 11.125,1.617 16.829,0.887 5.75,-0.739 8.957,-2.891 10.929,-7.157 1,-2.148 1.543,-4.687 1.821,-7.339 l -0.067,-8.594 c -0.375,-0.199 -17.187,-1.262 -19.597,-1.567 -16.778,-2.152 -33.665,-11.269 -31.04,-32.351 1.633,-13.117 8.704,-19.09 21.954,-20.692 7.265,-0.878 12.066,-0.042 18.078,2.504 2.539,1.075 4.898,2.309 7.039,3.664 2.871,1.782 5.383,4.352 5.957,4.68 l 1.777,-9.012 h 13.613 c 0.254,2.754 0.051,36.469 0.051,40.215 0,6.727 0,13.434 0,20.16 0,6.512 -0.492,11.649 -3.543,16.485 -9.222,14.683 -29.277,13.988 -45.844,9.992 -3.707,-0.891 -12.503,-3.316 -14.769,-5.309" style="fill:#ed1e24;fill-opacity:1;fill-rule:evenodd;stroke:none" id="path12"/>
      <path d="m 619.816,223.293 c -1.175,-0.664 -2.406,-1.852 -3.753,-2.832 -3.836,-2.766 -8.606,-5.324 -13.665,-5.953 -15.003,-1.852 -18.531,13.613 -13.71,21.59 5.152,8.515 21.488,8.047 31.175,8.086 z m -46.488,61.316 c 0.094,-1.656 2.141,-9.375 2.817,-10.582 2.527,0.512 8.085,2.852 14.168,4.043 8.828,1.75 23.335,3.211 27.582,-6.304 1.73,-3.891 2.984,-14.649 1.761,-15.879 -0.761,-0.559 -8.129,-0.614 -9.82,-0.727 -9.742,-0.613 -17.801,-1.351 -26.25,-5.801 -8.965,-4.695 -16.418,-12.941 -14.57,-27.492 1.679,-13.219 8.746,-18.992 21.961,-20.637 9.711,-1.218 17.347,1.293 25.125,6.18 3.386,2.129 4.816,3.977 5.968,4.738 l 1.711,-9.058 13.696,-0.016 v 60.367 c 0,6.805 -0.532,11.547 -3.629,16.625 -8.922,14.618 -29.52,13.641 -45.711,9.86 -3.793,-0.879 -12.446,-3.293 -14.809,-5.317" style="fill:#ed1e24;fill-opacity:1;fill-rule:evenodd;stroke:none" id="path14"/>
      <path d="m 511.719,202.898 21.828,-0.003 c 0.723,0.175 2.258,3.695 2.68,4.539 0.824,1.695 1.472,3.23 2.246,4.918 1.468,3.195 2.824,6.761 4.101,10.171 5.27,14.114 9.531,29.516 13.16,44.239 0.891,3.629 5.09,21.136 5.09,23.64 l -16.316,0.012 c -3.563,0.043 -2.117,0.492 -3.074,-6.773 -0.985,-7.536 -2.567,-15.071 -4.383,-22.172 -1.336,-5.184 -10.582,-38.149 -12.426,-40.274 l -4.66,17.657 c -1.75,5.875 -3.352,11.531 -5.188,17.296 l -8.054,25.61 c -0.918,2.883 -1.793,5.969 -2.856,8.609 l -19.285,0.047 c 0.082,-1.703 12.668,-41.055 13.52,-43.832 2.308,-7.492 4.539,-14.371 6.812,-21.738 2.207,-7.258 4.801,-14.754 6.805,-21.946" style="fill:#ed1e24;fill-opacity:1;fill-rule:evenodd;stroke:none" id="path16"/>
      <path d="m 373.027,292.262 0.012,-75.758 c 0,-14.086 -4.598,-30.141 -18.726,-34.758 0.824,-1.715 6.914,-7.957 8.531,-10.375 4.789,0.848 11.824,5.234 14.469,7.746 4.05,3.824 6.542,6.801 9.539,12.922 5.984,12.199 5.031,25.125 5.031,39.758 0,29.898 0.156,59.828 -0.008,89.726 -2.203,0.395 -15.137,0.137 -18.848,0.129 v -29.39" style="fill:#ed1e24;fill-opacity:1;fill-rule:evenodd;stroke:none" id="path18"/>
      <path d="m 218.734,279.195 -5.933,8.625 c -1.949,2.832 -3.856,5.981 -5.672,9.125 -3.324,5.785 -7.316,13.133 -9.149,20.43 -3.347,13.363 4.907,21.648 12.192,30.406 1.101,1.336 2.391,2.582 3.582,3.836 7.625,8.031 18.07,17.649 26.203,25.563 8.266,8.09 13.246,17.027 14.211,30.113 0.52,6.832 -0.797,21.461 -5.625,24.098 1.437,-10.254 1.77,-17.219 -2.383,-27.524 -4.808,-11.965 -12.637,-19.121 -21.722,-26.195 -7.426,-5.781 -19.579,-16.207 -25.985,-22.242 -4.144,-3.934 -11.156,-10.969 -14.058,-17.832 -4.293,-10.149 -0.036,-16.793 4.562,-23.887 2.191,-3.383 4.418,-6.27 6.758,-9.297 2.726,-3.535 5.152,-5.973 7.336,-8.738 2.301,-2.93 5.148,-5.625 7.66,-8.414 1.566,-1.723 6.477,-6.981 8.023,-8.067" style="fill:#ed1e24;fill-opacity:1;fill-rule:evenodd;stroke:none" id="path20"/>
      <path d="m 306.809,191.207 c 2.91,-4.691 0.035,-6.68 -3.942,-8.543 -17.672,-8.273 -77.433,-9.824 -96.094,-10.094 -19.027,-0.281 -38.199,0.477 -56.578,3.7 -2.976,0.511 -16.07,2.601 -16.679,6.074 -0.403,2.187 1.914,3.832 3.109,4.574 4.227,2.629 11.973,4.441 17.301,5.41 1.539,0.274 5.262,0.676 6.414,1.145 -8.902,1.312 -37.113,-3.453 -43.285,-12.227 -3.891,-5.523 2.629,-8.086 6.968,-9.504 16.262,-5.308 50.102,-6.383 67.954,-6.644 26.679,-0.36 90.882,-0.094 114.41,16.074 1.375,0.933 4.074,2.902 4.351,4.812 0.336,2.379 -2.484,4.614 -3.929,5.223" style="fill:#3c8ace;fill-opacity:1;fill-rule:evenodd;stroke:none" id="path22"/>
      <path d="m 229.82,268.332 c 2.836,0.973 11.203,7.832 13.457,10.137 2.957,3.07 7.993,8.746 8.43,15.312 0.383,5.961 -3.727,13.723 -6.238,17.528 -7.938,12.035 -14.281,18.925 -3.535,32.269 3.593,4.442 7.488,7.926 12.043,11.688 5.453,4.507 14.378,10.664 20.769,14.675 l 7.281,4.68 c -3.855,-0.508 -14.062,-4.594 -18.089,-6.094 -5.411,-2.039 -11.649,-5.14 -16.375,-7.863 -16.219,-9.379 -32.176,-24.051 -25.649,-44.34 4.414,-13.726 17.274,-21.949 16.348,-32.234 -0.563,-6.301 -6.617,-12.606 -8.442,-15.758" style="fill:#ed1e24;fill-opacity:1;fill-rule:evenodd;stroke:none" id="path24"/>
      <path d="m 263.684,201.211 c -4.981,1.887 -8.731,4.074 -13.192,6.723 -2.582,1.543 -1.586,1.418 -4.894,0.597 -13.493,-3.324 -35.375,-3.367 -49.543,-2.937 -3.645,0.113 -13.891,0.429 -15.961,3.863 -1.317,2.16 0.476,3.738 1.176,4.969 -9.286,-1.871 -18.743,-9.586 -5.829,-16.008 14.532,-7.211 45.071,-7.289 60.973,-4.461 4.527,0.805 25.102,5.496 27.27,7.254" style="fill:#3c8ace;fill-opacity:1;fill-rule:evenodd;stroke:none" id="path26"/>
      <path d="m 267.98,231.512 c -3.839,0.965 -7.285,3.363 -9.64,5.426 -2.055,1.761 -1.352,1.324 -5.766,0.585 -15.886,-2.648 -63.176,-7.273 -76.715,-1.691 -1.754,0.727 -3.777,1.813 -3.902,3.879 -0.144,2.453 1.934,3.777 2.809,5.117 -10.891,-1.348 -21.336,-11.844 -6.758,-16.855 16.441,-5.633 51.902,-5.821 69.387,-3.618 5.757,0.739 26.179,4.711 30.585,7.157" style="fill:#3c8ace;fill-opacity:1;fill-rule:evenodd;stroke:none" id="path28"/>
      <path d="m 278.918,267.199 c -2.07,-0.086 -4.84,-0.73 -6.93,-1.066 -2.425,-0.36 -4.734,-0.715 -7.156,-1.035 -14.555,-2.039 -30.691,-3.684 -45.262,-4.535 -11.375,-0.668 -54.281,-2.086 -60.683,3.886 -0.473,2.684 2.601,4.371 4.488,5.403 7.355,3.945 15.18,5.277 22.426,7.543 -10.012,0.941 -35.184,-6.262 -44.285,-11.95 -9.844,-6.136 6.562,-8.582 12.699,-9.437 35.918,-5.004 69.504,-2.32 105.023,2.726 5.793,0.821 7.032,0.489 10.977,2.996 2.723,1.735 6.289,3.559 8.703,5.469" style="fill:#3c8ace;fill-opacity:1;fill-rule:evenodd;stroke:none" id="path30"/>
      <path d="m 154.785,159.035 c 10.028,-4.211 31.867,-6.777 43.203,-7.695 15.934,-1.309 33.426,-1 49.356,0.125 20.621,1.461 45.078,3.824 63.222,13.035 4.313,2.203 12.09,7.457 12.836,12.504 -1.297,-0.59 -2.418,-1.77 -3.632,-2.586 -32,-22.031 -105.137,-19.93 -142.891,-17.238 l -22.094,1.855" style="fill:#3c8ace;fill-opacity:1;fill-rule:evenodd;stroke:none" id="path32"/>
      <path d="m 286.168,275.793 c 7.84,2.449 16.758,0.82 21.723,-3.594 5.367,-4.785 5.429,-13.859 1.558,-20.89 -5.179,-9.375 -16.051,-17.739 -25.051,-23.387 -1.543,-0.973 -3.035,-1.707 -4.375,-2.699 5.805,0.613 19.571,6.832 24.809,10.066 6.684,4.129 14.145,10.156 17.223,17.965 4.394,11.086 -1.996,19.547 -8.805,23.551 -3.914,2.289 -8.641,3.66 -14.145,3.433 -4.21,-0.172 -11.039,-1.847 -12.937,-4.445" style="fill:#3c8ace;fill-opacity:1;fill-rule:evenodd;stroke:none" id="path34"/>
    </g>
  </g>
</svg>